<?xml version="1.0" encoding="UTF-8"?>
<svg version="1.1" xmlns="http://www.w3.org/2000/svg" width="512" height="512">
<path d="M0 0 C168.96 0 337.92 0 512 0 C512 168.96 512 337.92 512 512 C343.04 512 174.08 512 0 512 C0 343.04 0 174.08 0 0 Z " fill="#FF8800" transform="translate(0,0)"/>
<path d="M0 0 C4.96363147 2.84703277 8.02246264 7.19228399 10.3359375 12.33984375 C11.44300135 20.94186325 8.14079966 26.87669241 4.23046875 34.359375 C3.58728479 35.62377572 2.94585814 36.88907169 2.30607605 38.15519714 C0.61519704 41.49140543 -1.09619111 44.81663002 -2.81317139 48.13946533 C-5.50867731 53.36459257 -8.17307346 58.6057339 -10.83908844 63.84595299 C-11.50181449 65.14806912 -12.16526342 66.44981758 -12.82942963 67.75119972 C-19.33912493 80.51400108 -25.3827808 93.46288126 -31.34866333 106.48745728 C-33.98835669 112.21151869 -36.76348558 117.86816649 -39.5390625 123.52734375 C-46.20160974 137.22977606 -52.51645683 151.07834481 -58.77992249 164.96681213 C-61.01160773 169.91037194 -63.2666969 174.84274778 -65.53515625 179.76953125 C-79.3364467 209.75632384 -92.58041251 239.97979466 -105.5390625 270.33984375 C-105.95009216 271.30224976 -106.36112183 272.26465576 -106.78460693 273.25622559 C-111.69775487 284.77855255 -116.49737547 296.34041761 -121.1640625 307.96484375 C-121.61645294 309.08826172 -122.06884338 310.21167969 -122.53494263 311.36914062 C-124.72220448 316.80296472 -126.89526201 322.24163262 -129.04248047 327.69140625 C-129.82988071 329.65776157 -130.61777798 331.62391795 -131.40625 333.58984375 C-131.74922119 334.47623535 -132.09219238 335.36262695 -132.44555664 336.27587891 C-135.18202529 343.03672044 -138.50138917 348.37898629 -144.7890625 352.27734375 C-150.72858297 354.35354781 -157.53547553 354.71404008 -163.33203125 352.16796875 C-170.19799648 347.82213758 -172.66043645 343.22389297 -174.45141602 335.44946289 C-174.66596436 334.48516357 -174.8805127 333.52086426 -175.1015625 332.52734375 C-175.61711888 330.30016085 -176.13563094 328.07366115 -176.65625 325.84765625 C-176.80278519 325.21898148 -176.94932037 324.5903067 -177.10029602 323.94258118 C-179.28068064 314.63602063 -181.61211872 305.3660553 -183.92971802 296.09292603 C-184.70941534 292.97100132 -185.4855416 289.84820387 -186.26147461 286.7253418 C-190.2405051 270.76315057 -194.56466196 254.92836732 -199.2265625 239.15234375 C-201.12648461 232.69281199 -202.98528683 226.23541021 -204.6640625 219.71484375 C-206.4683931 212.80595393 -208.62147711 206.02638199 -210.8515625 199.24365234 C-212.59180034 193.89791006 -214.18924869 188.52440594 -215.71104431 183.11322021 C-218.99092853 171.45379982 -222.6226082 159.94626987 -226.4765625 148.46484375 C-226.79464874 147.51395874 -227.11273499 146.56307373 -227.44046021 145.58337402 C-238.861014 111.49361681 -251.27138078 77.77996009 -264.46875 44.33984375 C-264.74923691 43.62850281 -265.02972382 42.91716187 -265.31871033 42.18426514 C-266.60635311 38.93732495 -267.92983619 35.71702993 -269.33666992 32.51977539 C-271.33231894 27.73895353 -271.35655777 23.43353117 -270.6640625 18.33984375 C-267.86662396 12.64135784 -263.92558982 9.55758923 -258.4140625 6.58984375 C-251.14230288 4.16592388 -245.65220065 4.90247113 -238.70703125 7.9765625 C-233.05850644 11.74584579 -230.89638055 17.8579193 -228.39453125 23.8828125 C-228.00363815 24.81071091 -227.61274506 25.73860931 -227.21000671 26.69462585 C-223.21786122 36.25535591 -219.55383793 45.93027401 -215.9765625 55.65234375 C-215.63945251 56.56349945 -215.30234253 57.47465515 -214.95501709 58.41342163 C-202.37758186 92.41038989 -190.21662224 126.65443724 -179.6640625 161.33984375 C-179.07048598 163.27609486 -178.47674168 165.21229454 -177.8828125 167.1484375 C-172.27823528 185.48284047 -172.27823528 185.48284047 -169.74072266 194.53613281 C-168.97947281 197.22553703 -168.20742797 199.90987319 -167.42163086 202.59204102 C-163.01927428 217.68889853 -159.13536001 232.90587592 -155.2890625 248.15234375 C-154.64221815 250.70645394 -153.99508446 253.26049087 -153.34765625 255.81445312 C-151.78313224 261.98874542 -150.2221419 268.16392219 -148.6640625 274.33984375 C-146.03342457 268.61590854 -143.4100472 262.90714888 -141.11328125 257.0390625 C-140.67056885 255.91693359 -140.22785645 254.79480469 -139.77172852 253.63867188 C-139.30307373 252.44693359 -138.83441895 251.25519531 -138.3515625 250.02734375 C-120.10854037 203.97217672 -100.08517364 158.57977426 -79.20751953 113.66503906 C-77.63411235 110.2753197 -76.06871812 106.88197596 -74.50390625 103.48828125 C-66.92767341 87.10456538 -59.10187331 70.85006908 -51.14770508 54.64648438 C-47.14600897 46.49219267 -43.16759535 38.33069072 -39.296875 30.11328125 C-38.29546226 27.99895335 -37.29336147 25.88495253 -36.29122925 23.77096558 C-35.67560937 22.46485015 -35.06453124 21.15658212 -34.45852661 19.84597778 C-30.53394357 11.35935334 -26.61249413 3.70898869 -18.7265625 -1.66015625 C-11.86144731 -3.90182652 -6.48131987 -2.80192443 0 0 Z " fill="#FFFEFD" transform="translate(386.6640625,80.66015625)"/>
<path d="M0 0 C0.33 0 0.66 0 1 0 C1 13.53 1 27.06 1 41 C-12.53 41 -26.06 41 -40 41 C-36.76284016 39.38142008 -33.61375469 38.05715856 -30.25 36.75 C-24.78388069 34.47853851 -20.44415797 31.88380762 -16 28 C-15.40703125 27.52304687 -14.8140625 27.04609375 -14.203125 26.5546875 C-6.56114327 19.82568589 -2.52693015 9.66396702 0 0 Z " fill="none" transform="translate(511,471)"/>
<path d="M0 0 C1.61857992 3.23715984 2.94284144 6.38624531 4.25 9.75 C6.52146149 15.21611931 9.11619238 19.55584203 13 24 C13.71542969 24.88945312 13.71542969 24.88945312 14.4453125 25.796875 C21.17431411 33.43885673 31.33603298 37.47306985 41 40 C41 40.33 41 40.66 41 41 C27.47 41 13.94 41 0 41 C0 27.47 0 13.94 0 0 Z " fill="none" transform="translate(0,471)"/>
<path d="M0 0 C13.53 0 27.06 0 41 0 C41 13.53 41 27.06 41 41 C39.38142008 37.76284016 38.05715856 34.61375469 36.75 31.25 C34.47853851 25.78388069 31.88380762 21.44415797 28 17 C27.52304687 16.40703125 27.04609375 15.8140625 26.5546875 15.203125 C19.82568589 7.56114327 9.66396702 3.52693015 0 1 C0 0.67 0 0.34 0 0 Z " fill="none" transform="translate(471,0)"/>
<path d="M0 0 C13.53 0 27.06 0 41 0 C37.76284016 1.61857992 34.61375469 2.94284144 31.25 4.25 C25.78388069 6.52146149 21.44415797 9.11619238 17 13 C16.40703125 13.47695312 15.8140625 13.95390625 15.203125 14.4453125 C7.56114327 21.17431411 3.52693015 31.33603298 1 41 C0.67 41 0.34 41 0 41 C0 27.47 0 13.94 0 0 Z " fill="none" transform="translate(0,0)"/>
</svg>
